# xmcd
#
# Track frame offsets: 
#        187
#        16222
#        31275
#        49792
#        63672
#        79610
#        91535
#        104132
#        122280
#        135702
#
# Disc length: 2005 seconds
#
# Revision: 5
# Processed by: cddbd v1.5.1PL0 Copyright (c) Steve Scherf et al.
# Submitted via: ExactAudioCopy v0.95a5
#
DISCID=7707d30a
DTITLE=Keith Whitley - I Wonder Do You Think Of Me
DYEAR=1989
DGENRE=Country
TTITLE0=Talk To Me Texas
TTITLE1=Between An Old Memory And Me
TTITLE2=It Ain't Nothin
TTITLE3=I'm Over You
TTITLE4=Turn This Thing Around
TTITLE5=Lady's Choice
TTITLE6=Brother Jukebox
TTITLE7=Tennessee Courage
TTITLE8=Heartbreak Highway
TTITLE9=I Wonder Do You Think Of Me
EXTD=more info\nMillenniumMusicProjectFormat, AKALibraryCondensedForma
EXTD=t alphabetically by title - syntax as follows:\nTitle{Subtitle}[in
EXTD=fo](Lyricist;Composer;Date,Artist,Location)[info]\ncorrections to
EXTD=: windking@gmail.com
EXTT0=C Putman - D Cook - B Jones
EXTT1=C Craig - D Stegall
EXTT2=T Haselden
EXTT3=T Nichols - Z Turner
EXTT4=G Nelson - G Harrison
EXTT5=B Rice - M Sharon Rice
EXTT6=P Craft
EXTT7=V Gosdin - R Gosdin - L Brown
EXTT8=L Wilson - D Perimer - B Mason
EXTT9=S Shafer
PLAYORDER=
